<svg width="371" height="160" viewBox="0 0 371 160" fill="none" xmlns="http://www.w3.org/2000/svg">
<mask id="path-1-outside-1_27_2" maskUnits="userSpaceOnUse" x="5" y="33" width="84" height="85" fill="black">
<rect fill="white" x="5" y="33" width="84" height="85"/>
<path d="M57.5625 117L7.3125 34.0625H36.5L86.9375 117H57.5625ZM86.9375 109.125L62.875 69.5V34.0625H86.9375V109.125ZM7.3125 117V41.9375L31.375 81.375V117H7.3125Z"/>
</mask>
<path d="M57.5625 117L7.3125 34.0625H36.5L86.9375 117H57.5625ZM86.9375 109.125L62.875 69.5V34.0625H86.9375V109.125ZM7.3125 117V41.9375L31.375 81.375V117H7.3125Z" fill="#DBE4F0"/>
<path d="M57.5625 117L56.7072 117.518L56.9992 118H57.5625V117ZM7.3125 34.0625V33.0625H5.5374L6.45723 34.5807L7.3125 34.0625ZM36.5 34.0625L37.3544 33.5429L37.0623 33.0625H36.5V34.0625ZM86.9375 117V118H88.716L87.7919 116.48L86.9375 117ZM86.9375 109.125L86.0828 109.644L87.9375 112.698V109.125H86.9375ZM62.875 69.5H61.875V69.7798L62.0203 70.0191L62.875 69.5ZM62.875 34.0625V33.0625H61.875V34.0625H62.875ZM86.9375 34.0625H87.9375V33.0625H86.9375V34.0625ZM7.3125 117H6.3125V118H7.3125V117ZM7.3125 41.9375L8.16615 41.4167L6.3125 38.3786V41.9375H7.3125ZM31.375 81.375H32.375V81.094L32.2286 80.8541L31.375 81.375ZM31.375 117V118H32.375V117H31.375ZM57.5625 117L58.4178 116.482L8.16777 33.5443L7.3125 34.0625L6.45723 34.5807L56.7072 117.518L57.5625 117ZM7.3125 34.0625V35.0625H36.5V34.0625V33.0625H7.3125V34.0625ZM36.5 34.0625L35.6456 34.5821L86.0831 117.52L86.9375 117L87.7919 116.48L37.3544 33.5429L36.5 34.0625ZM86.9375 117V116H57.5625V117V118H86.9375V117ZM86.9375 109.125L87.7922 108.606L63.7297 68.9809L62.875 69.5L62.0203 70.0191L86.0828 109.644L86.9375 109.125ZM62.875 69.5H63.875V34.0625H62.875H61.875V69.5H62.875ZM62.875 34.0625V35.0625H86.9375V34.0625V33.0625H62.875V34.0625ZM86.9375 34.0625H85.9375V109.125H86.9375H87.9375V34.0625H86.9375ZM7.3125 117H8.3125V41.9375H7.3125H6.3125V117H7.3125ZM7.3125 41.9375L6.45885 42.4583L30.5214 81.8959L31.375 81.375L32.2286 80.8541L8.16615 41.4167L7.3125 41.9375ZM31.375 81.375H30.375V117H31.375H32.375V81.375H31.375ZM31.375 117V116H7.3125V117V118H31.375V117Z" fill="#DBE4F0" mask="url(#path-1-outside-1_27_2)"/>
<mask id="path-3-outside-2_27_2" maskUnits="userSpaceOnUse" x="275" y="33" width="96" height="85" fill="black">
<rect fill="white" x="275" y="33" width="96" height="85"/>
<path d="M341.25 117L337.75 107.938H310.625L316.375 91.5H331.375L309.188 34.0625H336.125L369.188 117H341.25ZM276.562 117L306.188 37.8125L318.438 70.75L303.25 117H276.562Z"/>
</mask>
<path d="M341.25 117L337.75 107.938H310.625L316.375 91.5H331.375L309.188 34.0625H336.125L369.188 117H341.25ZM276.562 117L306.188 37.8125L318.438 70.75L303.25 117H276.562Z" fill="#DBE4F0"/>
<path d="M341.25 117L340.317 117.36L340.564 118H341.25V117ZM337.75 107.938L338.683 107.577L338.436 106.938H337.75V107.938ZM310.625 107.938L309.681 107.607L309.216 108.938H310.625V107.938ZM316.375 91.5V90.5H315.665L315.431 91.1698L316.375 91.5ZM331.375 91.5V92.5H332.833L332.308 91.1397L331.375 91.5ZM309.188 34.0625V33.0625H307.729L308.255 34.4228L309.188 34.0625ZM336.125 34.0625L337.054 33.6922L336.803 33.0625H336.125V34.0625ZM369.188 117V118H370.663L370.116 116.63L369.188 117ZM276.562 117L275.626 116.65L275.121 118H276.562V117ZM306.188 37.8125L307.125 37.4639L306.19 34.9512L305.251 37.4621L306.188 37.8125ZM318.438 70.75L319.388 71.062L319.497 70.7295L319.375 70.4014L318.438 70.75ZM303.25 117V118H303.974L304.2 117.312L303.25 117ZM341.25 117L342.183 116.64L338.683 107.577L337.75 107.938L336.817 108.298L340.317 117.36L341.25 117ZM337.75 107.938V106.938H310.625V107.938V108.938H337.75V107.938ZM310.625 107.938L311.569 108.268L317.319 91.8302L316.375 91.5L315.431 91.1698L309.681 107.607L310.625 107.938ZM316.375 91.5V92.5H331.375V91.5V90.5H316.375V91.5ZM331.375 91.5L332.308 91.1397L310.12 33.7022L309.188 34.0625L308.255 34.4228L330.442 91.8603L331.375 91.5ZM309.188 34.0625V35.0625H336.125V34.0625V33.0625H309.188V34.0625ZM336.125 34.0625L335.196 34.4328L368.259 117.37L369.188 117L370.116 116.63L337.054 33.6922L336.125 34.0625ZM369.188 117V116H341.25V117V118H369.188V117ZM276.562 117L277.499 117.35L307.124 38.1629L306.188 37.8125L305.251 37.4621L275.626 116.65L276.562 117ZM306.188 37.8125L305.25 38.1611L317.5 71.0986L318.438 70.75L319.375 70.4014L307.125 37.4639L306.188 37.8125ZM318.438 70.75L317.487 70.438L302.3 116.688L303.25 117L304.2 117.312L319.388 71.062L318.438 70.75ZM303.25 117V116H276.562V117V118H303.25V117Z" fill="#DBE4F0" mask="url(#path-3-outside-2_27_2)"/>
<mask id="path-5-outside-3_27_2" maskUnits="userSpaceOnUse" x="101" y="33" width="83" height="85" fill="black">
<rect fill="white" x="101" y="33" width="83" height="85"/>
<path d="M144.812 117V100.125H155.375V50.875H144.812V34.0625H166.25L183 50.625V100.438L166.25 117H144.812ZM119.188 117L102.375 100.438V50.625L119.188 34.0625H140.438V50.875H130.062V100.125H140.438V117H119.188Z"/>
</mask>
<path d="M144.812 117V100.125H155.375V50.875H144.812V34.0625H166.25L183 50.625V100.438L166.25 117H144.812ZM119.188 117L102.375 100.438V50.625L119.188 34.0625H140.438V50.875H130.062V100.125H140.438V117H119.188Z" fill="#DBE4F0"/>
<path d="M144.812 117H143.812V118H144.812V117ZM144.812 100.125V99.125H143.812V100.125H144.812ZM155.375 100.125V101.125H156.375V100.125H155.375ZM155.375 50.875H156.375V49.875H155.375V50.875ZM144.812 50.875H143.812V51.875H144.812V50.875ZM144.812 34.0625V33.0625H143.812V34.0625H144.812ZM166.25 34.0625L166.953 33.3514L166.661 33.0625H166.25V34.0625ZM183 50.625H184V50.2075L183.703 49.9139L183 50.625ZM183 100.438L183.703 101.149L184 100.855V100.438H183ZM166.25 117V118H166.661L166.953 117.711L166.25 117ZM119.188 117L118.486 117.712L118.778 118H119.188V117ZM102.375 100.438H101.375V100.856L101.673 101.15L102.375 100.438ZM102.375 50.625L101.673 49.9126L101.375 50.2064V50.625H102.375ZM119.188 34.0625V33.0625H118.778L118.486 33.3501L119.188 34.0625ZM140.438 34.0625H141.438V33.0625H140.438V34.0625ZM140.438 50.875V51.875H141.438V50.875H140.438ZM130.062 50.875V49.875H129.062V50.875H130.062ZM130.062 100.125H129.062V101.125H130.062V100.125ZM140.438 100.125H141.438V99.125H140.438V100.125ZM140.438 117V118H141.438V117H140.438ZM144.812 117H145.812V100.125H144.812H143.812V117H144.812ZM144.812 100.125V101.125H155.375V100.125V99.125H144.812V100.125ZM155.375 100.125H156.375V50.875H155.375H154.375V100.125H155.375ZM155.375 50.875V49.875H144.812V50.875V51.875H155.375V50.875ZM144.812 50.875H145.812V34.0625H144.812H143.812V50.875H144.812ZM144.812 34.0625V35.0625H166.25V34.0625V33.0625H144.812V34.0625ZM166.25 34.0625L165.547 34.7736L182.297 51.3361L183 50.625L183.703 49.9139L166.953 33.3514L166.25 34.0625ZM183 50.625H182V100.438H183H184V50.625H183ZM183 100.438L182.297 99.7264L165.547 116.289L166.25 117L166.953 117.711L183.703 101.149L183 100.438ZM166.25 117V116H144.812V117V118H166.25V117ZM119.188 117L119.889 116.288L103.077 99.7251L102.375 100.438L101.673 101.15L118.486 117.712L119.188 117ZM102.375 100.438H103.375V50.625H102.375H101.375V100.438H102.375ZM102.375 50.625L103.077 51.3374L119.889 34.7749L119.188 34.0625L118.486 33.3501L101.673 49.9126L102.375 50.625ZM119.188 34.0625V35.0625H140.438V34.0625V33.0625H119.188V34.0625ZM140.438 34.0625H139.438V50.875H140.438H141.438V34.0625H140.438ZM140.438 50.875V49.875H130.062V50.875V51.875H140.438V50.875ZM130.062 50.875H129.062V100.125H130.062H131.062V50.875H130.062ZM130.062 100.125V101.125H140.438V100.125V99.125H130.062V100.125ZM140.438 100.125H139.438V117H140.438H141.438V100.125H140.438ZM140.438 117V116H119.188V117V118H140.438V117Z" fill="#DBE4F0" mask="url(#path-5-outside-3_27_2)"/>
<path d="M277.974 26.0345C270.311 31.2482 257.724 40.678 251.813 48.0354L268.256 39.8217L268.273 39.8477L254.325 50.8554C249.114 55.3314 244.681 60.0745 240.199 65.9018L257.289 53.5366L257.31 53.5591L257.307 53.561L257.308 53.5619L257.307 53.5623L244.211 67.9256C239.04 75.204 236.644 77.648 234.263 85.8909C236.015 83.3042 237.732 82.1736 239.767 81.2268C241.813 80.2745 244.175 79.509 247.217 77.6311L247.237 77.6548C243.47 81.8831 240.239 86.1728 237.702 90.5542L237.707 90.5522L237.754 90.5296L237.728 90.5737C235.601 94.1663 235.339 97.365 235.009 102.401C235.895 101.057 236.758 100.354 237.793 99.8408C238.316 99.581 238.884 99.3695 239.52 99.1477C240.156 98.9259 240.86 98.694 241.658 98.3924C241.987 98.2683 242.318 98.1514 242.652 98.0426L242.667 98.0696C238.427 101.522 234.641 105.383 234.153 111.057L234.153 111.058C234.328 113.342 234.663 115.532 235.142 117.505C242.271 111.558 252.77 98.2812 257.431 88.2898L246.358 94.1763L246.34 94.1506L254.058 87.3811L254.057 87.3814C259.985 81.5079 266.529 73.3 270.162 65.6396L254.236 76.2545L254.217 76.2304L268.964 61.0833L268.964 61.083C272.869 55.9162 275.621 49.9148 277.015 43.194L276.794 43.3208L262.63 56.6644L262.607 56.6439L272.381 42.9558L272.38 42.9562C275.244 37.3466 277.265 29.9947 277.974 26.0345Z" fill="#DBE4F0" stroke="#DBE4F0" stroke-width="0.03125"/>
<path d="M190.6 26.3987C198.349 31.4837 211.092 40.7017 217.126 47.9593L200.548 40.0216L200.531 40.0479L214.661 50.8209C219.946 55.2092 224.458 59.8775 229.036 65.6291L211.742 53.5513L211.722 53.5741L211.724 53.576L211.724 53.5769L211.725 53.5772L225.059 67.7196C230.351 74.9106 232.788 77.3142 235.306 85.5161C233.511 82.9591 231.775 81.8574 229.725 80.9447C227.664 80.0268 225.289 79.3008 222.216 77.474L222.196 77.4981C226.033 81.6628 229.335 85.8979 231.946 90.2363L231.94 90.2343L231.893 90.2125L231.92 90.2562C234.106 93.8127 234.422 97.0066 234.836 102.036C233.928 100.708 233.054 100.019 232.01 99.5231C231.482 99.2721 230.911 99.0701 230.271 98.859C229.632 98.6478 228.924 98.4278 228.121 98.1395C227.79 98.021 227.457 97.9096 227.121 97.8064L227.107 97.8337C231.404 101.215 235.254 105.012 235.837 110.677L235.837 110.678C235.699 112.965 235.401 115.16 234.956 117.141C227.728 111.313 217.009 98.214 212.181 88.302L223.351 94.0025L223.369 93.9766L215.539 87.337L215.54 87.3373C209.514 81.5637 202.834 73.4664 199.073 65.8678L215.175 76.215L215.194 76.1906L200.196 61.2921L200.195 61.2918C196.204 56.191 193.352 50.2364 191.846 43.5398L192.069 43.6629L206.454 56.7679L206.477 56.747L196.476 43.2242L196.477 43.2246C193.519 37.6637 191.376 30.3466 190.6 26.3987Z" fill="#DBE4F0" stroke="#DBE4F0" stroke-width="0.03125"/>
<path d="M58 40C59.6569 40 61 38.6569 61 37C61 35.3431 59.6569 34 58 34V40ZM53.6368 29.4455L52.2609 26.7797L53.6368 29.4455ZM58 37V34H55.4714V37V40H58V37ZM55.4714 29V32H75.25V29V26H55.4714V29ZM53.6368 29.4455L52.2609 26.7797C45.7402 30.1452 48.1333 40 55.4714 40V37V34C55.1303 34 54.9455 33.898 54.8292 33.7996C54.689 33.681 54.5606 33.4872 54.4996 33.236C54.4386 32.9848 54.4638 32.7536 54.534 32.584C54.5923 32.4432 54.7096 32.2678 55.0127 32.1114L53.6368 29.4455ZM53.6368 29.4455L55.0127 32.1114C55.1545 32.0382 55.3118 32 55.4714 32V29V26C54.3543 26 53.2535 26.2673 52.2609 26.7797L53.6368 29.4455Z" fill="#DBE4F0"/>
<path d="M92.25 40C90.5931 40 89.25 38.6569 89.25 37C89.25 35.3431 90.5931 34 92.25 34V40ZM96.6132 29.4455L97.9891 26.7797L96.6132 29.4455ZM92.25 37V34H94.7786V37V40H92.25V37ZM94.7786 29V32H75V29V26H94.7786V29ZM96.6132 29.4455L97.9891 26.7797C104.51 30.1452 102.117 40 94.7786 40V37V34C95.1197 34 95.3045 33.898 95.4208 33.7996C95.561 33.681 95.6894 33.4872 95.7504 33.236C95.8114 32.9848 95.7862 32.7536 95.716 32.584C95.6577 32.4432 95.5404 32.2678 95.2373 32.1114L96.6132 29.4455ZM96.6132 29.4455L95.2373 32.1114C95.0955 32.0382 94.9382 32 94.7786 32V29V26C95.8957 26 96.9965 26.2673 97.9891 26.7797L96.6132 29.4455Z" fill="#DBE4F0"/>
</svg>
