<svg width="170" height="170" viewBox="0 0 170 170" fill="none" xmlns="http://www.w3.org/2000/svg">
<circle cx="85" cy="85" r="85" fill="#6E8F7B"/>
<mask id="mask0_49_367" style="mask-type:alpha" maskUnits="userSpaceOnUse" x="0" y="0" width="170" height="170">
<circle cx="85" cy="85" r="85" fill="#FED18F"/>
</mask>
<g mask="url(#mask0_49_367)">
<path d="M115.5 69C115.5 74.0732 114.959 78.9503 113.962 83.5C113.777 84.3449 113.576 85.1785 113.359 86C109.037 102.425 98.6399 114 86.5001 114C77.1323 114 68.8019 107.108 63.5001 96.4126C61.7927 92.9684 60.3994 89.1298 59.3867 85C58.1677 80.0286 57.5001 74.6353 57.5001 69C57.5001 66.6189 56.2705 63.7811 56.5001 61.5C57.101 55.53 56.5434 50.4489 58.5001 45.5C60.513 40.4093 60.8894 35.4876 64.0001 32C68.7704 26.6518 80.1653 24 86.5001 24C93.4063 24 101.519 25.746 106.5 32C112.523 39.5624 114.784 52.7921 115.414 65.5C115.471 66.655 115.5 67.8222 115.5 69Z" fill="#FFDFC1"/>
<path d="M57.5001 69C57.5001 69 55.4451 67.1485 54.0001 67.5C53.0515 67.7308 52.476 68.1475 52.0001 69C51.4291 70.023 51.625 70.8901 52.0001 72C52.4005 73.1844 53.5407 73.3372 54.0001 74.5C54.5741 75.9528 53.7306 76.9613 54.0001 78.5C54.288 80.1433 54.643 81.0687 55.5001 82.5C56.1425 83.5727 56.3151 84.6014 57.5001 85C58.1985 85.2349 59.3867 85 59.3867 85C58.1677 80.0286 57.5001 74.6353 57.5001 69Z" fill="#FFDFC1"/>
<path d="M115.414 65.5C115.471 66.655 115.5 67.8222 115.5 69C115.5 74.0732 114.959 78.9503 113.962 83.5L115.414 83C115.414 83 116.552 81.4658 117 80.5C117.551 79.3116 117.78 78.7912 118 77.5C118.232 76.139 118 74 118 74C118 74 117.679 71.8287 118 70.5C118.307 69.2267 119 67.5 119 67.5C119 67.5 119.533 65.8178 119 65C118.616 64.4103 118.2 64.0725 117.5 64C116.502 63.8966 115.414 65.5 115.414 65.5Z" fill="#FFDFC1"/>
<path d="M113.359 86C109.037 102.425 98.6399 114 86.5001 114C77.1323 114 68.8019 107.108 63.5001 96.4126V114L62.5001 116L60.0001 117.5L57.5001 124.5L62.5001 133L74.5001 142.5L99.5001 146L118 141.5L125 133L115.414 116H112.5L113.359 86Z" fill="#FFDFC1"/>
<path d="M78 31.5001H85C85 31.5001 89.5658 31.0826 92.5 31.0001C94.6471 30.9397 95.8561 30.8698 98 31.0001C99.765 31.1073 100.902 30.7431 102.5 31.5001C103.63 32.0353 104.476 32.3649 105 33.5001C105.491 34.5638 104.596 35.4003 105 36.5001C105.337 37.4165 105.869 37.7548 106.5 38.5001C107.392 39.5541 108.621 39.6725 109 41.0001C109.215 41.7511 108.892 42.2265 109 43.0001C109.206 44.4729 109.721 45.2335 110.5 46.5001C111.155 47.5649 112.017 47.8467 112.5 49.0001C113.179 50.6211 112.429 51.7441 112.5 53.5001C112.635 56.8397 112.225 58.9103 113.5 62.0001C114.1 63.4553 115.5 65.5001 115.5 65.5001L117 64.0001C117 64.0001 117.211 58.5084 117 55.0001C116.8 51.6637 116.486 49.807 116 46.5001C115.51 43.1651 115.298 41.2749 114.5 38.0001C113.476 33.8007 113.239 31.1971 111 27.5001C108.924 24.0732 107.215 22.3905 104 20.0001C101.336 18.0196 99.6346 17.0924 96.5 16.0001C92.5886 14.637 90.1411 14.4038 86 14.5001C82.4378 14.5829 80.4167 14.9886 77 16.0001C72.6452 17.2893 70.3236 18.5491 66.5 21.0001C62.8798 23.3207 60.5786 24.5587 58 28.0001C55.8002 30.936 54.9623 32.9599 54 36.5001C52.7698 41.0262 53 43.5001 53.5 48.5001C53.9279 52.7789 53.4601 55.2339 54 59.5001C54.3992 62.6535 55.5 68.0001 55.5 68.0001L58 69.5001C58 69.5001 57.5929 65.6548 57.5 63.5001C57.4159 61.5493 57.5 58.5001 57.5 58.5001C57.5 58.5001 56.8257 54.2589 58 52.0001C58.3248 51.3754 58.6426 51.1066 59 50.5001C59.4434 49.7477 59.6691 49.3082 60 48.5001C61.1199 45.7656 60.1039 43.8157 61 41.0001C61.7946 38.5037 62.2378 36.9385 64 35.0001C65.7126 33.1162 67.0848 32.3051 69.5 31.5001C72.6491 30.4504 74.6806 31.5001 78 31.5001Z" fill="#CEA465"/>
<path fill-rule="evenodd" clip-rule="evenodd" d="M105 86.0001C105 86.0001 103.787 83.58 102.5 82.5001C101.284 81.4797 100.203 81.2066 98.8795 80.8727C98.4494 80.7642 97.9939 80.6492 97.5 80.5001C95.7767 79.9796 94.7771 79.7877 93 79.5001C90.871 79.1555 89.6552 79.0822 87.5 79.0001C87.0987 78.9848 86.7414 78.9622 86.4059 78.941C85.4364 78.8798 84.648 78.83 83.5 79.0001C81.6676 79.2715 79.5 80.0834 78.5 80.5001C76.8879 81.1718 75 82.0001 75 82.0001C75 82.0001 72.8217 83.7153 72 85.0001C71.3346 86.0404 71 88.0001 71 88.0001C71 88.0001 68.8208 87.5258 67.5 87.0001C67.4343 86.9739 67.3694 86.9481 67.3052 86.9225C65.3016 86.1259 64.0074 85.6113 62.5 84.0001C61.2181 82.6298 60.7894 81.5281 60.1423 79.865C60.0961 79.7463 60.0488 79.6248 60 79.5001C59.482 78.1763 59 76.0001 59 76.0001C59 76.0001 58.4048 81.5361 59 85.0001C59.3411 86.9851 59.8116 88.2557 60.4009 89.8474C60.5887 90.3545 60.7885 90.8943 61 91.5001C61.231 92.1614 61.4306 92.7635 61.6185 93.3301C62.2767 95.3152 62.7906 96.8648 64 99.0001C65.2219 101.157 66.1705 102.299 67.6706 104.103C67.7775 104.232 67.8872 104.364 68 104.5C68.4501 105.043 68.859 105.553 69.247 106.037C70.987 108.208 72.3036 109.85 75 111.5C77.1653 112.825 78.5588 113.304 81 114C84.5877 115.022 86.7803 115.283 90.5 115C93.2877 114.788 94.9186 114.574 97.5 113.5C100.854 112.105 102.462 110.598 105 108C107.65 105.288 108.797 103.387 110.5 100C112.081 96.8551 112.708 94.93 113.5 91.5001C114.11 88.8596 114.24 87.2312 114.443 84.7076C114.461 84.4796 114.48 84.2442 114.5 84.0001C114.881 79.3293 114.5 72.0001 114.5 72.0001L112.5 78.0001C112.5 78.0001 111.622 81.2215 110.5 83.0001C110.385 83.1817 110.279 83.3551 110.177 83.5212C109.553 84.5348 109.095 85.28 108 86.0001C107.122 86.5779 105.5 87.0001 105.5 87.0001L105 86.0001ZM98.9133 86.0827C98.4058 85.2511 97.9839 84.5599 97 84.0001C95.1332 82.9379 91.5 84.0001 91.5 84.0001H87.5C87.5 84.0001 83.7962 83.5331 81.5 84.0001C81.422 84.0159 81.345 84.0315 81.2689 84.0469C79.3382 84.4382 78.0498 84.6992 76.5 86.0001C75.2135 87.08 74.4206 87.8739 74 89.5001C73.7067 90.6343 73.7494 91.3556 74 92.5001C74.3941 94.2995 75.0201 95.4031 76.5 96.5001C77.2016 97.0201 77.6654 97.2433 78.5 97.5001C78.7418 97.5745 78.9958 97.6631 79.254 97.7532C80.5904 98.2197 82.0404 98.7258 82.5 97.5001C82.5 97.5001 82.3773 95.5728 82.5 95.0001C82.6787 94.1661 83.0341 94.0515 83.5899 93.8722C83.8489 93.7886 84.1515 93.691 84.5 93.5001C85.3162 93.0529 86.0251 93.316 86.7953 93.6018C87.3178 93.7957 87.8686 94.0001 88.5 94.0001C88.9889 94.0001 89.4097 93.8218 89.8103 93.652C90.3696 93.415 90.8894 93.1948 91.5 93.5001C91.6945 93.5973 91.9454 93.6915 92.2132 93.792C92.9655 94.0745 93.8518 94.4073 94 95.0001C94.3867 96.5466 94.3935 96.5461 94.9016 96.5067C95.0506 96.4951 95.2426 96.4803 95.5 96.5001C96.5127 96.578 97.1179 96.0909 97.8355 95.5132C98.0434 95.3459 98.2607 95.171 98.5 95.0001C98.6926 94.8625 98.8784 94.7366 99.0564 94.616C99.9173 94.0327 100.598 93.5713 101 92.5001C101.411 91.4031 101.317 90.6279 101 89.5001C100.772 88.6889 100.415 88.2215 99.9822 87.6541C99.8301 87.4548 99.6687 87.2432 99.5 87.0001C99.2761 86.6771 99.0895 86.3714 98.9133 86.0827Z" fill="#CEA465"/>
<path d="M60 121C60.3969 118.853 62.5 116 62.5 116C62.5 116 54.7972 119.489 50 122C43.1762 125.572 39.4603 127.806 33 132C25.7272 136.722 22.0259 139.918 15 145C9.3351 149.097 4.97474 150.128 0.5 155.5C-2.13635 158.665 -3.18689 160.801 -5 164.5C-6.65996 167.886 -8.5 173.5 -8.5 173.5L188.5 176C188.5 176 188.86 170.192 188.5 166.5C187.953 160.891 187.304 157.643 185 152.5C183.713 149.627 182.775 148.1 181 145.5C178.037 141.161 175.98 138.929 172 135.5C163.796 128.431 156.98 127.706 147 123.5C133.855 117.96 112.5 112.5 112.5 112.5V116C112.5 116 114.148 116.235 115 117.5C116.762 120.116 117.57 121.875 118 125C118.569 129.135 118.099 131.892 116 135.5C112.834 140.943 108.101 141.942 102 143.5C96.3242 144.949 92.7695 144.514 87 143.5C81.7086 142.57 78.6883 141.623 74 139C69.6357 136.558 64 131 64 131C64 131 59.2354 125.136 60 121Z" fill="#565A65"/>
</g>
</svg>
