<svg width="170" height="170" viewBox="0 0 170 170" fill="none" xmlns="http://www.w3.org/2000/svg">
<mask id="mask0_49_342" style="mask-type:alpha" maskUnits="userSpaceOnUse" x="0" y="0" width="170" height="170">
<circle cx="85" cy="85" r="85" transform="matrix(-1 0 0 1 170 0)" fill="#78AEB1"/>
</mask>
<g mask="url(#mask0_49_342)">
<circle cx="85" cy="85" r="85" transform="matrix(-1 0 0 1 170 0)" fill="#78AEB1"/>
<path d="M86.5002 25C102.792 25.0002 116 41.5656 116 62C116 63.6957 115.909 65.3648 115.733 67C115.733 67 116.833 65.1126 118 64.5C118.547 64.213 118.894 63.8847 119.5 64C120.667 64.222 119.889 65.8176 120 67C120 67 119.988 71.3031 119.5 74C119.104 76.1908 118.82 77.43 118 79.5C117.36 81.1173 116.011 83.4808 116 83.5L115.674 83.4941C114.696 91.7306 111.558 99.0814 107 104.606V117L110 122L103.5 144.5H67.0002L62.2082 117V99C59.5651 94.1994 57.8045 88.5767 57.217 82.5H57.1701C57.1543 82.504 56.0867 82.7743 55.5002 82.5C54.5479 82.0542 54.9789 80.9362 54.5002 80C53.7355 78.5045 52.7041 78.025 52.0002 76.5C51.0048 74.3432 51.1668 72.8696 51.0002 70.5C50.877 68.747 50.7307 67.7366 51.0002 66C51.2182 64.5953 50.661 62.9767 52.0002 62.5C52.5519 62.3037 52.9226 62.4029 53.5002 62.5C55.4477 62.8277 57.1603 65.9818 57.1701 66C57.0575 64.686 57.0002 63.3515 57.0002 62C57.0002 41.5655 70.2078 25 86.5002 25Z" fill="#EACBAF"/>
<path d="M100.5 33.0001C95.5959 31.0646 92.1226 34.2461 86.9999 33.0001C83.9347 32.2545 82.651 30.1475 79.4999 30.0001C74.9631 29.7878 72.5033 32.11 68.9999 35.0001C66.4348 37.1161 64.6426 38.3774 63.4999 41.5001C62.3591 44.6173 64.6406 46.8828 63.4999 50.0001C62.3571 53.1227 59.0313 53.3389 57.9999 56.5001C57.1519 59.0989 57.9999 63.5001 57.9999 63.5001V72.5001C57.9999 72.5001 54.8551 66.2504 53.4999 62.0001C52.0457 57.4394 51.4017 54.7701 50.9999 50.0001C50.7212 46.6923 50.142 44.7067 50.9999 41.5001C52.0217 37.6806 53.3469 35.3856 56.4999 33.0001C59.4543 30.7647 61.8088 30.319 65.4999 30.0001H68.9999L67.4999 28.5001C67.4999 28.5001 66.8767 25.0556 67.4999 23.0001C68.5821 19.43 74.4999 16.5001 74.4999 16.5001C74.4999 16.5001 81.9799 13.4527 86.9999 13.5001C91.8302 13.5456 98.9999 16.5001 98.9999 16.5001C98.9999 16.5001 107.468 21.6408 112 26.0001C116 29.848 118.899 31.8626 121 37.0001C122.934 41.7303 122.741 44.8953 122.5 50.0001C122.245 55.3947 120 64.5001 120 64.5001C120 64.5001 119 63.0001 117.5 65.0001C116 67.0001 115 74.0001 115 74.0001V67.0001C115 67.0001 115.807 61.7198 115 58.5001C114.063 54.7645 110.937 53.7356 110 50.0001C109.193 46.7803 111.08 44.639 110 41.5001C108.381 36.7926 105.131 34.8276 100.5 33.0001Z" fill="black"/>
<path d="M76.5 133.5C78.6573 134.852 80.1483 135.253 82 137C84.3636 139.23 86.5 144 86.5 144C86.5 144 88.8114 140.844 90.5 139C94.5363 134.592 98.9862 134.335 102.5 129.5C104.913 126.179 106 120 106 120L107 109.5H107.5L110 115.5L155.5 139C155.5 139 160.208 140.105 162.5 142C163.888 143.147 165.5 145.5 165.5 145.5L177.5 171H-6.5C-6.5 171 -4.74915 165.185 -3.5 161.5C-1.21793 154.769 -1.57778 149.937 3 144.5C6.14403 140.766 8.90719 139.661 13 137C20.9817 131.811 35 126.5 35 126.5L57.5 115L62 109.5C62 109.5 61.9576 113.009 62 115C62.0617 117.902 62.248 118.881 63.5 121.5C64.7856 124.189 65.4716 125.816 67.5 128C70.3033 131.018 73.0096 131.313 76.5 133.5Z" fill="#12373F"/>
</g>
</svg>
