<svg width="170" height="170" viewBox="0 0 170 170" fill="none" xmlns="http://www.w3.org/2000/svg">
<circle cx="85" cy="85" r="85" fill="#FED18F"/>
<mask id="mask0_49_351" style="mask-type:alpha" maskUnits="userSpaceOnUse" x="0" y="0" width="170" height="170">
<circle cx="85" cy="85" r="85" fill="#D9D9D9"/>
</mask>
<g mask="url(#mask0_49_351)">
<path d="M130 84C130 90.6048 129.919 96.9831 129.157 103C128.556 107.747 127.531 112.269 125.787 116.5C124.86 118.749 123.839 120.915 122.733 122.989C121.807 124.726 120.82 126.398 119.778 128C117.056 132.181 113.952 135.882 110.542 139C102.94 145.95 93.8139 150 84 150C73.7244 150 64.203 145.56 56.3949 138C53.4007 135.101 50.6585 131.743 48.2223 128C47.9886 127.641 47.7577 127.278 47.5296 126.912C45.2574 123.265 43.2696 119.272 41.6135 115C40.7989 112.898 40.2196 110.729 39.8107 108.5C38.4213 100.925 39 92.6571 39 84C39 81.2922 39.102 78.6224 39.3018 76C41.7915 43.322 59.4597 18 84 18C107.194 18 125.015 40.6205 129.11 70.6925C129.695 74.9909 130 79.4415 130 84Z" fill="#C18D77"/>
<path d="M122.733 122.989C121.807 124.726 120.82 126.398 119.778 128C117.056 132.181 113.952 135.882 110.542 139C102.94 145.95 93.8139 150 84 150C73.7244 150 64.203 145.56 56.3949 138C53.4007 135.101 50.6585 131.743 48.2223 128C47.9886 127.641 47.7577 127.278 47.5296 126.912C47.6593 127.759 47.8872 129.722 47.4597 131C47.101 132.072 46.8103 132.712 46 133.5C44.7025 134.763 43.727 134.5 41.6135 135C39.5 135.5 33.8246 136.464 29 138C21.0083 140.545 9.5 147 9.5 147V210.5H160V143.5C160 143.5 151.249 137.506 145 135C139.373 132.744 132 131.5 130 131C128 130.5 124.5 130 123.5 129.5C122.5 129 122.5 126.5 122.5 126.5L122.733 122.989Z" fill="#C18D77"/>
<path d="M39 84C39 81.2922 39.102 78.6224 39.3018 76C39.3018 76 38.6101 75.1969 38 75C37.4425 74.8201 37.0524 74.805 36.5 75C35.5793 75.3249 34.9638 76.1409 34.5 77C33.6448 78.5841 33.5 79.6998 33.5 81.5C33.5 83 33.7079 83.6647 34 85C34.2247 86.0272 34.4914 86.5797 35 87.5C35.3405 88.1162 35.6706 88.3778 36 89C36.9317 90.7599 36.8547 92.014 37 94C37.0855 95.1684 37 97 37 97C37 97 37.3207 99.1713 37 100.5C36.6927 101.773 35.5 103.5 35.5 103.5C35.5 103.5 34.5312 105.701 35 107C35.2391 107.662 36 108.5 36 108.5C36 108.5 37.1355 109.377 38 109.5C38.3866 109.555 38.6381 109.647 39 109.5C39.4659 109.311 39.8107 108.5 39.8107 108.5C38.4213 100.925 39 92.6571 39 84Z" fill="#C18D77"/>
<path d="M129.11 70.6925C129.695 74.9909 130 79.4415 130 84C130 90.6048 129.919 96.9831 129.157 103L130.5 104C130.948 104.333 132.111 104.404 133 104C133.754 103.657 134.192 103.269 134.5 102.5C134.79 101.775 134.5 100.5 134.5 100.5L133.5 98.5C133.5 98.5 132.661 97.3583 132.5 96.5C132.392 95.9242 132.5 95 132.5 95L133 92C133 92 133.282 90.1676 133.5 89C133.978 86.4391 134.556 85.067 135 82.5C135.235 81.1395 135.419 80.3783 135.5 79C135.638 76.6528 135 73 135 73C135 73 135 71 134.5 70C134 69 133.465 68.6493 132.5 68.5C131.704 68.3769 131.185 68.5764 130.5 69C129.773 69.45 129.11 70.6925 129.11 70.6925Z" fill="#C18D77"/>
<path fill-rule="evenodd" clip-rule="evenodd" d="M106 111C104.229 109.235 101 107 101 107C101 107 96.1376 103.476 92.4999 103C90.9511 102.797 89.9396 102.394 88.4999 103C87.6001 103.379 87.2338 103.856 86.4999 104.5C85.8773 105.046 84.9999 106 84.9999 106H83.9999C82.8718 105.846 82.4763 105.086 81.4999 104.5C80.5236 103.914 80.1352 103.087 78.9999 103C77.6939 102.9 74.1528 103.878 72.9999 104.5C70.1395 106.043 69.62 106.077 66.9999 108C64.7625 109.642 64.6818 110.293 62.9999 112.5C62.0459 113.752 61.3815 115.473 60.9999 117C60.5243 118.904 61.541 120.092 61.9999 122C62.2888 123.201 63.0725 123.767 62.9999 125C62.923 126.308 62.2728 126.942 61.4999 128C60.4378 129.454 59.3095 129.765 57.9999 131C57.1964 131.758 55.9999 133 55.9999 133C55.9999 133 57.6751 135.566 58.9999 137C62.5672 140.862 65.6864 141.885 70.4999 144C74.7978 145.888 77.3622 146.773 81.9999 147.5C85.0924 147.985 86.8858 148.318 89.9999 148C93.0156 147.692 94.7591 147.295 97.4999 146C101.14 144.281 102.821 143.005 105.5 140C107.842 137.372 109.847 135.608 111.5 132.5C112.896 129.874 115 126 115 126L111 123L109 120L109.5 117L109 114.5C109 114.5 107.275 112.271 106 111ZM93.9999 111.5C97.0194 111.768 97.9016 112.17 101.5 113.5C102.486 113.865 104.5 116 104.5 116C104.5 116 105.5 118.524 105.5 119.5C105.5 122.234 105.844 122.4 105 125C103.849 128.548 98.4999 133 98.4999 133C98.4999 133 91.5746 136.854 86.4999 137C81.3139 137.15 73.9999 132.5 73.9999 132.5C73.9999 132.5 70.7527 129.634 68.9999 127.5C67.2124 125.324 64.9999 121.5 64.9999 121.5C64.9999 121.5 64.352 119.679 64.4999 118.5C64.7928 116.167 66.6183 115.41 68.4999 114C71.3171 111.889 76.9999 111 76.9999 111C76.9999 111 78.9999 110.5 80.9999 111.5C82.408 112.204 82.9485 113.233 84.4999 113.5C85.2697 113.632 86.2264 113.608 86.9999 113.5C88.4727 113.295 88.5364 111.764 89.9999 111.5C91.153 111.293 92.4439 111.362 93.9999 111.5Z" fill="#1E1E1E"/>
<path d="M86.4999 121C86.4999 121 83.4544 120.324 81.4999 120.5C79.8963 120.644 78.8584 120.636 77.4999 121.5C76.5681 122.093 75.4999 123.5 75.4999 123.5C75.4999 123.5 76.9405 124.836 77.9999 125.5C79.9365 126.714 81.2668 127.014 83.4999 127.5C85.2276 127.876 87.9999 128 87.9999 128C87.9999 128 91.1717 127.039 92.9999 126C94.6975 125.035 96.9999 123 96.9999 123C96.9999 123 96.2681 121.603 95.4999 121C94.3815 120.123 93.4146 120.14 91.9999 120C89.8274 119.785 86.4999 121 86.4999 121Z" fill="#1E1E1E"/>
<path d="M129.5 91.5001C129.5 91.5001 127.412 84.5509 126.5 80.0001C125.724 76.1281 125.482 73.9194 125 70.0001C124.784 68.2451 125.068 67.1746 124.5 65.5001C123.994 64.0092 123.36 63.3187 122.5 62.0001C120.683 59.2148 118.308 58.5573 117 55.5001C116.441 54.1931 116.289 53.3919 116 52.0001C115.522 49.6979 115.482 48.3513 115.5 46.0001C115.516 43.8434 116.35 42.6281 116 40.5001C115.729 38.8539 115.36 37.9294 114.5 36.5001C113.361 34.6074 111 32.0001 111 32.0001C111 32.0001 107.861 29.26 105 27.5001C105 27.5001 101.5 25.5001 101 25.5001C100.195 25.4937 98.7021 25.6062 97.9999 26.0001C97.2774 26.4054 94.4999 28.5001 94.4999 28.5001C94.4999 28.5001 92.1212 29.6065 90.4999 30.0001L86.4999 30.5001C86.4999 30.5001 83.7671 30.9402 81.9999 31.0001C79.4555 31.0863 76.9999 30.5001 75.4999 30.0001C73.5681 29.5171 72.4643 29.3264 70.4999 29.0001C69.1379 28.7738 68.3804 28.5243 66.9999 28.5001C65.4259 28.4724 64.468 28.4318 62.9999 29.0001C61.6868 29.5084 60.6715 30.219 59.4999 31.0001C57.7426 32.1716 55.4999 34.0001 55.4999 34.0001C55.4999 34.0001 53.398 35.6077 52.4999 37.0001C51.5957 38.4021 51.5492 39.4248 50.9999 41.0001C50.1255 43.5078 49.3143 44.8629 48.9999 47.5001C48.7919 49.2451 48.9375 50.2438 48.9999 52.0001C49.0835 54.3498 48.8299 55.7463 49.4999 58.0001C49.7996 59.008 50.4999 60.5001 50.4999 60.5001C50.4999 60.5001 49.0365 62.3814 47.9999 63.5001C47.2492 64.3103 46.7119 64.6556 45.9999 65.5001C44.8125 66.9084 44.2854 67.8338 43.4999 69.5001C42.7101 71.1756 42.4518 72.2036 41.9999 74.0001C40.7607 78.9272 41.4999 87.0001 41.4999 87.0001C41.4999 87.0001 40.0697 80.9077 39.4999 77.0001C39.1016 74.2675 38.9999 72.0001 38.9999 70.0001C38.9999 59.8389 37.8845 53.9386 39.9999 44.0001C40.7594 40.4322 41 38.3252 42.4999 35.0001C44.8449 29.8016 47.4066 27.4709 51.4999 23.5001C55.5084 19.6116 58.2115 17.874 62.9999 15.0001C67.6427 12.2136 70.1394 9.76445 75.4999 9.00005C78.0129 8.64171 79.4654 8.85925 81.9999 9.00005C85.1436 9.1747 86.9419 9.25081 89.9999 10.0001C94.333 11.0617 100.5 14.5001 100.5 14.5001C100.5 14.5001 108.971 18.6858 113 23.0001C116.179 26.404 117.153 28.9767 119.5 33.0001C121.612 36.6215 122.913 38.6195 124.5 42.5001C127.081 48.8129 128.5 59.5001 128.5 59.5001L129.5 91.5001Z" fill="#1E1E1E"/>
<path d="M124 129.5C124 129.5 124.758 132.555 124.5 134.5C124.223 136.585 123.503 137.652 122.5 139.5C120.651 142.906 118.967 144.506 116 147C112.254 150.148 109.429 150.92 105 153C97.5094 156.517 85 160 85 160C85 160 69.9528 158.67 61.5 154.5C58.4368 152.989 56.7349 152.046 54 150C51.234 147.93 49.7108 146.654 47.5 144C45.4202 141.503 43.9114 140.119 43 137C42.7208 136.044 42.5 134.5 42.5 134.5C42.5 134.5 32.8191 135.844 27 138C23.1505 139.426 17.5 142.5 17.5 142.5L9 147.5L9.5 210.5H160.5L160 143.5C160 143.5 156.469 140.576 154 139C151.57 137.449 150.143 136.651 147.5 135.5C144.669 134.267 140 133 140 133C140 133 134.833 131.721 131.5 131C128.581 130.368 124 129.5 124 129.5Z" fill="#651B34"/>
</g>
</svg>
