<svg width="170" height="170" viewBox="0 0 170 170" fill="none" xmlns="http://www.w3.org/2000/svg">
<circle cx="85" cy="85" r="85" fill="#C1BEE2"/>
<mask id="mask0_49_384" style="mask-type:alpha" maskUnits="userSpaceOnUse" x="0" y="0" width="170" height="170">
<circle cx="85" cy="85" r="85" fill="#D9D9D9"/>
</mask>
<g mask="url(#mask0_49_384)">
<path d="M72.0271 89.8634L55.5271 55.8634L52 54.5L48 56.5C48 56.5 46.9539 68.3316 47.5 78.8634C47.7435 83.5596 47.5272 80.3634 48.0272 89.8634C48.1419 92.0435 48.2139 95.7912 47.5272 97.8634C46.4526 101.106 44.7732 102.428 43.0272 105.363C37.035 115.438 28.0272 131.363 28.0272 131.363C28.0272 131.363 22.916 140.181 21.0272 146.363C19.9751 149.807 19.2423 151.769 19.0272 155.363C18.8042 159.087 20.0272 164.863 20.0272 164.863L21.2544 171.863H39.5271L39.0271 139.863L45.0271 125.863L80.0271 113.363V95.8634L72.0271 89.8634Z" fill="#D03032"/>
<path d="M113.027 53.8634L122.5 52.7411C122.5 52.7411 121.932 60.1906 121.527 64.8634C121.136 69.3756 120.275 71.8411 120.027 76.3634C119.845 79.6779 119.683 81.5619 120.027 84.8634C120.337 87.8342 121.527 92.3634 121.527 92.3634C121.527 92.3634 122.753 97.3482 124.027 100.363C126.493 106.2 129.575 108.55 133.027 113.863C135.801 118.133 137.834 120.542 140.527 124.863C142.103 127.393 142.027 127.363 144.527 130.863C145.963 132.873 147.027 135.863 147.027 135.863C147.027 135.863 147.527 138.411 147.527 140.363C147.527 142.316 147.527 143.863 146.027 149.863C144.527 155.863 144.296 155.582 144.027 159.363C143.777 162.875 143.881 164.903 144.527 168.363C144.936 170.552 146.027 173.863 146.027 173.863H134.027L135.027 143.863L125.527 129.863L105.027 117.863L95.0272 109.363V94.8634L107.027 74.8634L113.027 53.8634Z" fill="#D03032"/>
<path d="M113.5 57.8634C113.129 62.5095 112.481 67.0865 111.428 71.3634C109.648 78.5932 106.713 84.9652 102 89.3634C100.391 90.865 98.9372 92.2764 97.5002 93.5434C94.1523 96.4954 90.898 98.6637 86.0003 99.3634C83.673 98.7428 81.528 97.9296 79.5002 96.9389C74.993 94.7366 71.0646 91.6568 67.0003 87.8634C63.0329 84.1605 60.4647 79.6182 58.7034 74.2365C57.1352 69.4443 56.2068 63.9867 55.5003 57.8634C55.5003 57.1929 55.5116 56.5261 55.5342 55.8634C56.2719 34.1487 68.9583 16.8634 84.5003 16.8634C99.8029 16.8634 112.337 33.6204 113.424 54.8634C113.474 55.8541 113.5 56.8545 113.5 57.8634Z" fill="#FFDFC1"/>
<path d="M55.5003 57.8634C55.5003 57.1929 55.5116 56.5261 55.5342 55.8634C55.5342 55.8634 54.0619 55.3018 53.5003 55.8634C51.5002 57.8634 51.6299 59.0857 51.5003 59.8634C51.2926 61.1093 51.1413 64.3505 51.5003 66.8634C51.8151 69.0674 52.2861 70.2209 53.0003 72.3634C53.5003 73.8634 55.0003 74.8634 55.0003 74.8634C55.0003 74.8634 56.5003 75.8634 58.0003 75.3634C58.4924 75.1994 58.7034 74.2365 58.7034 74.2365C57.1352 69.4443 56.2068 63.9867 55.5003 57.8634Z" fill="#FFDFC1"/>
<path d="M113.424 54.8634C113.474 55.8541 113.5 56.8545 113.5 57.8634C113.129 62.5095 112.481 67.0865 111.428 71.3634C111.428 71.3634 112.532 72.2493 113.5 72.3634C114.657 72.4996 116.5 71.3634 116.5 71.3634C116.5 71.3634 119.212 69.0786 120 66.8634C120.854 64.4648 120.193 61.6405 119.5 59.3634L119.478 59.2906C118.622 56.4752 117.979 54.3591 115.5 53.8634C114.618 53.6869 113.424 54.8634 113.424 54.8634Z" fill="#FFDFC1"/>
<path d="M86.0003 99.3634C83.673 98.7428 81.528 97.9296 79.5002 96.9389C79.5002 96.9389 80.8891 102.667 79.5002 105.863C79.0465 106.908 78.649 107.428 78.0002 108.363C73.6668 114.613 69.0002 115.863 61.0002 118.363C53.7316 120.635 48.2889 119.884 43.0002 125.363C41.1558 127.274 40.1693 128.479 39.0002 130.863C37.3314 134.268 37.1325 136.574 37.0002 140.363C36.8836 143.704 38.0002 148.863 38.0002 148.863L39.0002 159.363L40.0002 171.863L135 173.863C135 173.863 137.053 165.706 137.5 160.363C137.875 155.888 138.069 153.358 138 148.863C137.949 145.539 137.5 139 137.5 139C137.5 139 137.044 136.814 136.5 135.5C135.779 133.756 135.089 132.729 134 131.363C132.515 129.499 129 127.863 129 127.863L114.5 120.363C114.5 120.363 104.864 115.92 100 111.363C99.1942 110.608 99.017 110.34 98.5002 109.363C97.9445 108.314 97.6584 107.541 97.5002 106.363C96.8336 101.401 97.5002 93.5434 97.5002 93.5434C94.1523 96.4954 90.898 98.6637 86.0003 99.3634Z" fill="#FFDFC1"/>
<path d="M102 79.5C102 79.5 101.115 76.2835 100 74.5C97.7859 70.9561 94.7486 70.6287 91.5002 68C88.9154 65.9082 87.1342 65.0501 85.0002 62.5C83.6448 60.8802 83.104 59.8007 82.0002 58C80.2655 55.1698 79.1025 53.631 78.0002 50.5C77.0718 47.8629 76.5002 43.5 76.5002 43.5V27C76.5002 27 77.0002 27.5 76.5002 28.5C76.0002 29.5 76.0002 30 75.0002 32C73.8125 34.3754 73.0149 35.8184 71.5002 38C69.2453 41.2477 65.5002 46 65.5002 46L61.5002 50.5L55.7473 56.1366C55.7473 56.1366 54.7473 55.6366 54.2473 55.6366C53.7473 55.6366 48.0002 56.5 48.0002 56.5C48.0002 56.5 47.9312 46.3482 48.5002 41.5C48.9422 37.7345 50.5002 32 50.5002 32C50.5002 32 52.5928 24.7386 55.5002 21.1366C57.67 18.4485 59.3993 17.0226 62.5002 15.5C65.5259 14.0143 69.0002 13.5 71.0002 13.5C73.0002 13.5 79.0002 14 79.0002 14C79.0002 14 81.1274 11.395 83.0002 10.5C85.9952 9.06861 88.2157 8.8972 91.5002 9.37766C94.7847 9.85813 98.1342 10.9447 102 12.8777C106 14.8777 108.439 17.8161 110.5 19.8777C112 21.3777 116.5 29.8777 116.5 29.8777C116.5 29.8777 119.215 36.8517 120.5 41.5C121.715 45.8936 122.5 52.8777 122.5 52.8777L113.747 54.1366L113 64C113 64 111.943 60.88 111 59C109.859 56.7241 109.107 55.4744 107.5 53.5C105.494 51.0348 101.5 48 101.5 48C101.5 48 97.1741 44.2658 94.0002 42.5C91.9385 41.3529 88.5002 40 88.5002 40C88.5002 40 86.6155 38.8594 85.5002 38C82.7639 35.8914 79.5002 31.5 79.5002 31.5C79.5002 31.5 79.2555 39.7771 80.0002 45C80.1679 46.1758 80.0002 45 80.5002 48C80.8678 50.2056 81.0301 50.7392 82.0002 52.5C83.1809 54.6428 84.5367 56.0394 86.0002 58C87.4869 59.9915 90.5002 62.5 90.5002 62.5C90.5002 62.5 93.2429 65.2426 95.0002 67C96.3671 68.3668 98.5002 70.5 98.5002 70.5C98.5002 70.5 100.284 72.1536 101 73.5C102.116 75.597 102 79.5 102 79.5Z" fill="#D03032"/>
<path d="M72.5 129C69.1794 124.924 67.5 116.5 67.5 116.5L50.5 120.5C50.5 120.5 53.505 123.34 55 125.5C57.1888 128.663 58.4173 130.809 59.5 134.5C60.6116 138.289 60.828 140.565 60.5 144.5C60.2126 147.948 59.0656 149.708 58 153C56.5922 157.349 54 164 54 164L58 170.5L99 175.5L123 161.5C123 161.5 120 156.444 118.5 153C117.095 149.773 116.125 147.964 115.5 144.5C114.806 140.657 114.913 138.361 115.5 134.5C116.214 129.799 119.5 123 119.5 123L107 116C107 116 105 124.5 102.5 129C100.42 132.744 98.4957 134.959 94.5 136.5C90.674 137.975 87.4737 138.512 83.5 137.5C78.3567 136.19 75.9356 133.218 72.6025 129.126L72.5 129Z" fill="#5C5778"/>
</g>
</svg>
