<svg width="170" height="170" viewBox="0 0 170 170" fill="none" xmlns="http://www.w3.org/2000/svg">
<circle cx="85" cy="85" r="85" fill="#FED28F"/>
<mask id="mask0_49_411" style="mask-type:alpha" maskUnits="userSpaceOnUse" x="0" y="0" width="170" height="170">
<circle cx="85" cy="85" r="85" fill="#6E8F7B"/>
</mask>
<g mask="url(#mask0_49_411)">
<ellipse cx="84.5" cy="78.5" rx="42.5" ry="38.5" fill="#472E1A"/>
<path d="M108 61.5C108 73.0788 103.715 83.2434 97.2631 89C93.7135 92.1671 89.5082 94 84.9999 94C76.7076 94 69.4403 87.7992 65.3935 78.5C64.5102 76.4702 63.7803 74.2928 63.2267 72C62.4314 68.7062 61.9999 65.1743 61.9999 61.5C61.9999 59.9731 62.0744 58.4708 62.2186 57C63.7693 41.1805 73.3779 29 84.9999 29C97.7025 29 108 43.5507 108 61.5Z" fill="#6F391D"/>
<path d="M61.9999 61.5C61.9999 59.9731 62.0744 58.4708 62.2186 57C62.2186 57 61.3115 54.635 59.9999 54C58.7697 53.4044 57.7912 53.5518 56.4999 54C53.9372 54.8895 52.7106 57.3821 51.9999 60C51.2838 62.6382 52.1008 64.4184 52.9999 67C53.6058 68.7396 54.3298 69.5773 55.4999 71C56.377 72.0664 56.7735 72.8657 57.9999 73.5C59.3982 74.2232 60.7157 74.9105 61.9999 74C62.7474 73.47 63.2267 72 63.2267 72C62.4314 68.7062 61.9999 65.1743 61.9999 61.5Z" fill="#6F391D"/>
<path d="M84.9999 94C76.7076 94 69.4403 87.7992 65.3935 78.5C65.3935 78.5 67.6719 86.6406 67.9999 92C68.155 94.5337 67.9999 98.5 67.9999 98.5L65.3935 110L106.5 111C106.5 111 101.678 108.961 98.9999 107C97.5472 105.937 95.4999 104 95.4999 104C95.4999 104 94.9999 100.351 94.9999 98C94.9999 95.6487 95.4999 92 95.4999 92L97.2631 89C93.7135 92.1671 89.5082 94 84.9999 94Z" fill="#6F391D"/>
<path d="M93.4998 35.5C90.5621 33.8704 86.4998 30.5 86.4998 30.5C86.4998 30.5 84.9624 32.568 83.4998 33C81.3079 33.6475 77.9998 31 77.9998 31C77.9998 31 76.9324 33.8182 75.9998 35.5C74.3139 38.5404 73.1376 40.2355 70.4998 42.5C68.5681 44.1584 66.2354 43.7741 64.9998 46C63.9531 47.8858 64.9554 49.392 64.4998 51.5C63.9253 54.1584 61.9998 58 61.9998 58C61.9998 58 62.0411 53.3905 59.9998 52C57.8957 50.5668 53.4998 52.5 53.4998 52.5C53.4998 52.5 44.4292 62.5692 46.9998 69C49.5612 75.4079 61.4998 76 62.9998 76.5C64.4998 77 67.4998 96 67.4998 96C67.4998 96 67.6687 105.475 63.9998 109.5C62.1028 111.581 60.739 112.847 57.9998 113.5C54.2682 114.39 50.6695 114.164 48.4998 111C46.6224 108.262 50.9682 104.719 48.4998 102.5C46.4619 100.668 43.8446 103.419 41.4998 102C37.4591 99.5552 44.0146 92.4873 39.9998 90C39.1059 89.4463 38.3924 89.5558 37.4998 89C33.9216 86.7721 37.1424 82.13 34.9998 78.5C33.5243 76.0002 30.805 75.7889 29.9998 73C28.6897 68.4626 35.8279 67.2197 35.9998 62.5C36.0793 60.3184 34.5722 59.1409 34.9998 57C35.4666 54.6627 37.9806 54.3263 38.4998 52C38.9273 50.0848 37.6277 48.9268 37.9998 47C38.9037 42.3196 46.8396 44.6237 47.9998 40C48.5721 37.7195 46.6732 36.2012 47.4998 34C48.7006 30.8024 52.8744 32.1739 54.9998 29.5C56.4679 27.6531 55.6825 25.5048 57.4998 24C59.2146 22.5802 61.0754 23.6195 62.9998 22.5C64.9094 21.3893 65.0359 19.5117 66.9998 18.5C69.9507 16.9799 73.2577 20.9478 75.4998 18.5C76.5042 17.4035 75.8264 15.9135 76.9998 15C78.242 14.033 79.6434 15.2991 80.9998 14.5C82.7319 13.4797 81.7696 11.0238 83.4998 10C86.2147 8.39362 90.9998 13 90.9998 13C90.9998 13 93.3049 9.84315 95.4998 9.00004C98.4389 7.87106 100.515 8.99713 103.5 10C106.992 11.1736 108.198 13.3663 111.5 15C115.044 16.7533 118.572 15.3798 121 18.5C123.188 21.3121 121.155 24.2003 122.5 27.5C124.587 32.6209 130.573 32.6576 132 38C132.806 41.0184 131.21 42.9774 132 46C132.932 49.5644 136.251 50.3927 137 54C137.763 57.6776 134.819 59.8064 135.5 63.5C136.007 66.2494 138.355 67.2081 138.5 70C138.663 73.1504 135.343 74.3494 135.5 77.5C135.683 81.1797 141 81.8499 140.5 85.5C140.086 88.5219 137.614 89.302 135.5 91.5C132.813 94.2932 129.812 94.574 128 98C126.514 100.81 127.959 103.176 126.5 106C124.186 110.476 121.004 112.907 116 113.5C112.19 113.951 106.5 111 106.5 111L98.9998 95.5L106.5 83C106.5 83 107.643 75.0898 107.5 70C107.395 66.271 106.678 64.2263 106.5 60.5C106.351 57.3794 107.437 55.4804 106.5 52.5C105.574 49.5548 103.445 48.7285 102 46C100.438 43.0513 101.445 40.2705 98.9998 38C97.2709 36.3946 95.563 36.6445 93.4998 35.5Z" fill="#472E1A"/>
<path d="M82.5 110.5C75.9631 110.098 66 107.5 66 107.5C66 107.5 60.6122 111.969 56.5 113.5C51.7107 115.283 48.3159 113.29 43.5 115C38.7017 116.704 35.7723 118.099 32.5 122C28.4125 126.873 27.5 137.5 27.5 137.5L32.5 179L150.5 177.5V140.5C150.5 140.5 151.634 124.149 145 118C138.848 112.299 125.5 113.5 124 113.5C122.5 113.5 115.605 113.873 110.5 112.5C107.033 111.567 102 109 102 109C102 109 90.1233 110.969 82.5 110.5Z" fill="#A2B3BF"/>
</g>
</svg>
